<?xml version="1.0" encoding="UTF-8" standalone="no"?>
<!-- Generated by IcoMoon.io -->

<svg
   xmlns:dc="http://purl.org/dc/elements/1.1/"
   xmlns:cc="http://creativecommons.org/ns#"
   xmlns:rdf="http://www.w3.org/1999/02/22-rdf-syntax-ns#"
   xmlns:svg="http://www.w3.org/2000/svg"
   xmlns="http://www.w3.org/2000/svg"
   xmlns:sodipodi="http://sodipodi.sourceforge.net/DTD/sodipodi-0.dtd"
   xmlns:inkscape="http://www.inkscape.org/namespaces/inkscape"
   version="1.1"
   width="640"
   height="640"
   viewBox="0 0 640 640"
   id="svg4398"
   sodipodi:docname="eraser.svg"
   inkscape:version="0.92.4 (5da689c313, 2019-01-14)">
  <metadata
     id="metadata4404">
    <rdf:RDF>
      <cc:Work
         rdf:about="">
        <dc:format>image/svg+xml</dc:format>
        <dc:type
           rdf:resource="http://purl.org/dc/dcmitype/StillImage" />
      </cc:Work>
    </rdf:RDF>
  </metadata>
  <defs
     id="defs4402" />
  <sodipodi:namedview
     pagecolor="#ffffff"
     bordercolor="#666666"
     borderopacity="1"
     objecttolerance="10"
     gridtolerance="10"
     guidetolerance="10"
     inkscape:pageopacity="0"
     inkscape:pageshadow="2"
     inkscape:window-width="1853"
     inkscape:window-height="1057"
     id="namedview4400"
     showgrid="false"
     inkscape:zoom="0.36875"
     inkscape:cx="-21.694915"
     inkscape:cy="320"
     inkscape:window-x="59"
     inkscape:window-y="-8"
     inkscape:window-maximized="1"
     inkscape:current-layer="svg4398" />
  <title
     id="title4235" />
  <g
     id="g4408"
     transform="translate(-865.55123,105.09121)">
    <path
       style="fill:#000000"
       inkscape:connector-curvature="0"
       id="path4394"
       d="m 1464.5727,122.42929 -187.2,-187.200002 c -5.845,-5.854 -13.925,-9.476 -22.851,-9.476 -8.749,0 -16.686,3.48 -22.501,9.132 L 907.64475,250.74929 c -6.537,6.396 -10.59,15.308 -10.59,25.167 0,9.636 3.873,18.368 10.146,24.725 l 190.65195,193.788 c 5.86,5.949 14.004,9.635 23.008,9.635 8.829,0 16.831,-3.544 22.66,-9.287 l 321.276,-326.876 c 5.72,-5.821 9.251,-13.81 9.251,-22.623 0,-8.925 -3.621,-17.004 -9.474,-22.849 z m -498.49595,153.28 130.87995,-127.424 164.128,152.352 -132.288,134.752 z" />
    <path
       style="fill:#000000"
       inkscape:connector-curvature="0"
       id="path4396"
       d="m 1215.4207,502.23729 h 257.152 v -64 h -194.112 z" />
  </g>
</svg>
