<?xml version="1.0" encoding="UTF-8" standalone="no"?>
<!-- Generated by IcoMoon.io -->

<svg
   xmlns:dc="http://purl.org/dc/elements/1.1/"
   xmlns:cc="http://creativecommons.org/ns#"
   xmlns:rdf="http://www.w3.org/1999/02/22-rdf-syntax-ns#"
   xmlns:svg="http://www.w3.org/2000/svg"
   xmlns="http://www.w3.org/2000/svg"
   xmlns:sodipodi="http://sodipodi.sourceforge.net/DTD/sodipodi-0.dtd"
   xmlns:inkscape="http://www.inkscape.org/namespaces/inkscape"
   version="1.1"
   width="640"
   height="640"
   viewBox="0 0 640 640"
   id="svg702"
   sodipodi:docname="rotate right arrow.svg"
   inkscape:version="0.92.4 (5da689c313, 2019-01-14)">
  <metadata
     id="metadata708">
    <rdf:RDF>
      <cc:Work
         rdf:about="">
        <dc:format>image/svg+xml</dc:format>
        <dc:type
           rdf:resource="http://purl.org/dc/dcmitype/StillImage" />
      </cc:Work>
    </rdf:RDF>
  </metadata>
  <defs
     id="defs706" />
  <sodipodi:namedview
     pagecolor="#ffffff"
     bordercolor="#666666"
     borderopacity="1"
     objecttolerance="10"
     gridtolerance="10"
     guidetolerance="10"
     inkscape:pageopacity="0"
     inkscape:pageshadow="2"
     inkscape:window-width="1853"
     inkscape:window-height="1057"
     id="namedview704"
     showgrid="false"
     inkscape:zoom="0.36875"
     inkscape:cx="326.77966"
     inkscape:cy="320"
     inkscape:window-x="59"
     inkscape:window-y="-8"
     inkscape:window-maximized="1"
     inkscape:current-layer="svg702" />
  <title
     id="title535" />
  <path
     d="M480.589 430.118l82.589 41.294c-22.742 46.551-55.418 85.106-95.47 114.098l-51.354-77.392c27.181-20.393 48.933-46.551 63.685-76.752z"
     id="path694" />
  <path
     d="M297.059 44.704c0.31-0.001 0.677-0.002 1.044-0.002 105.088 0 197.482 54.354 250.603 136.481l92.473-44.714-45.883 229.413-229.413-91.765 96.354-50.471c-38.067-50.412-97.881-82.654-165.227-82.654-112.441 0-203.889 89.881-206.418 201.714 0.578 25.138 5.578 48.708 14.24 70.422l-87.657 26.168c-10.139-28.731-15.996-61.863-15.996-96.363 0-163.883 132.186-296.892 295.754-298.227z"
     id="path696" />
  <path
     d="M205.294 526.472l-36.706 82.589c-47.041-23.795-85.71-58.056-114.036-99.892l72.742-51.521c19.966 28.991 46.193 52.281 76.834 68.27z"
     id="path698" />
  <path
     d="M297.059 549.413l64.236-9.176 27.529 87.177c-26.634 8.786-57.29 13.854-89.131 13.854-2.54 0-5.072-0.032-7.596-0.096l-50.097 0.007 18.353-91.765h36.706z"
     id="path700" />
</svg>
