<?xml version="1.0" encoding="UTF-8" standalone="no"?>
<!-- Generated by IcoMoon.io -->

<svg
   xmlns:dc="http://purl.org/dc/elements/1.1/"
   xmlns:cc="http://creativecommons.org/ns#"
   xmlns:rdf="http://www.w3.org/1999/02/22-rdf-syntax-ns#"
   xmlns:svg="http://www.w3.org/2000/svg"
   xmlns="http://www.w3.org/2000/svg"
   xmlns:sodipodi="http://sodipodi.sourceforge.net/DTD/sodipodi-0.dtd"
   xmlns:inkscape="http://www.inkscape.org/namespaces/inkscape"
   version="1.1"
   width="640"
   height="640"
   viewBox="0 0 640 640"
   id="svg742"
   sodipodi:docname="rotate left arrow.svg"
   inkscape:version="0.92.4 (5da689c313, 2019-01-14)">
  <metadata
     id="metadata748">
    <rdf:RDF>
      <cc:Work
         rdf:about="">
        <dc:format>image/svg+xml</dc:format>
        <dc:type
           rdf:resource="http://purl.org/dc/dcmitype/StillImage" />
      </cc:Work>
    </rdf:RDF>
  </metadata>
  <defs
     id="defs746" />
  <sodipodi:namedview
     pagecolor="#ffffff"
     bordercolor="#666666"
     borderopacity="1"
     objecttolerance="10"
     gridtolerance="10"
     guidetolerance="10"
     inkscape:pageopacity="0"
     inkscape:pageshadow="2"
     inkscape:window-width="643"
     inkscape:window-height="480"
     id="namedview744"
     showgrid="false"
     inkscape:zoom="0.36875"
     inkscape:cx="326.77966"
     inkscape:cy="320"
     inkscape:window-x="222"
     inkscape:window-y="31"
     inkscape:window-maximized="0"
     inkscape:current-layer="svg742" />
  <title
     id="title575" />
  <path
     d="M159.411 430.118l-82.589 41.294c22.742 46.551 55.418 85.106 95.47 114.098l55.942-72.804c-29.469-21.149-52.869-48.961-68.277-81.313z"
     id="path734" />
  <path
     d="M342.941 44.704c-0.31-0.001-0.677-0.002-1.044-0.002-105.088 0-197.482 54.354-250.603 136.481l-92.473-44.714 45.883 229.413 229.413-91.765-100.942-50.471c37.767-54.051 99.693-88.966 169.774-88.966 114.031 0 206.472 92.441 206.472 206.472 0 0.629-0.003 1.257-0.009 1.886-0.581 24.806-5.582 48.377-14.244 70.090l87.657 26.168c10.139-28.731 15.996-61.863 15.996-96.362 0-163.883-132.186-296.893-295.754-298.227z"
     id="path736" />
  <path
     d="M434.706 526.472l41.294 82.589c47.041-23.795 85.71-58.056 114.036-99.892l-77.33-51.521c-19.966 28.991-46.193 52.281-76.834 68.27z"
     id="path738" />
  <path
     d="M342.941 549.413l-64.236-9.176-27.529 87.177c26.634 8.786 57.29 13.854 89.131 13.854 2.54 0 5.072-0.032 7.596-0.096l50.098 0.007-18.353-91.765h-36.706z"
     id="path740" />
</svg>
