<?xml version="1.0" standalone="no"?>
<!DOCTYPE svg PUBLIC "-//W3C//DTD SVG 1.1//EN" "http://www.w3.org/Graphics/SVG/1.1/DTD/svg11.dtd" >
<svg xmlns="http://www.w3.org/2000/svg">
<metadata>Generated by IcoMoon</metadata>
<defs>
<font id="icomoon" horiz-adv-x="1024">
<font-face units-per-em="1024" ascent="960" descent="-64" />
<missing-glyph horiz-adv-x="1024" />
<glyph unicode="&#x20;" horiz-adv-x="512" d="" />
<glyph unicode="&#xe900;" glyph-name="svg_arrow_down" d="M512 209.067c-13.653 0-27.307 6.827-34.133 13.653l-293.547 307.2c-20.48 20.48-20.48 54.613 0 68.267s47.787 20.48 68.267 0l259.413-273.067 259.413 273.067c20.48 20.48 47.787 20.48 68.267 0s20.48-54.613 0-68.267l-293.547-307.2c-6.827-13.653-20.48-13.653-34.133-13.653z" />
<glyph unicode="&#xe901;" glyph-name="svg_arrow_left" horiz-adv-x="1451" d="M17.067 499.2l435.2 443.733c17.067 17.067 34.133 25.6 51.2 25.6s34.133-8.533 51.2-17.067c17.067-8.533 25.6-34.133 25.6-51.2s-8.533-34.133-17.067-51.2l-315.733-315.733h1126.4c42.667 0 76.8-34.133 76.8-68.267 0-42.667-34.133-68.267-76.8-68.267h-1126.4l315.733-315.733c25.6-25.6 25.6-76.8 0-102.4-17.067-8.533-34.133-17.067-51.2-17.067v0c-17.067 0-42.667 8.533-51.2 25.6l-435.2 443.733c-8.533 8.533-17.067 25.6-17.067 51.2-8.533-17.067 0 0 8.533 17.067z" />
<glyph unicode="&#xe902;" glyph-name="svg_arrow_right" horiz-adv-x="1451" d="M1433.6 499.2l-435.2 443.733c-17.067 17.067-34.133 25.6-51.2 25.6s-34.133-8.533-51.2-17.067c-17.067-8.533-25.6-34.133-25.6-51.2s8.533-34.133 17.067-51.2l315.733-315.733h-1126.4c-42.667 0-76.8-34.133-76.8-68.267 0-42.667 34.133-68.267 76.8-68.267h1126.4l-315.733-315.733c-25.6-25.6-25.6-76.8 0-102.4 17.067-8.533 34.133-17.067 51.2-17.067v0c17.067 0 42.667 8.533 51.2 25.6l435.2 443.733c8.533 8.533 17.067 25.6 17.067 51.2 8.533-17.067 8.533 0-8.533 17.067z" />
<glyph unicode="&#xe903;" glyph-name="svg_arrow_up" d="M512 618.667c13.653 0 27.307-6.827 34.133-13.653l293.547-307.2c20.48-20.48 20.48-54.613 0-68.267s-47.787-20.48-68.267 0l-259.413 273.067-259.413-273.067c-20.48-20.48-47.787-20.48-68.267 0s-20.48 54.613 0 68.267l293.547 307.2c6.827 6.827 20.48 13.653 34.133 13.653z" />
<glyph unicode="&#xe904;" glyph-name="svg_blanks" d="M512 960c-284.444 0-512-227.556-512-512s227.556-512 512-512 512 227.556 512 512-227.556 512-512 512zM773.689 527.644l-284.444-267.378c-11.378-11.378-22.756-17.067-39.822-17.067-11.378 0-28.444 5.689-39.822 17.067l-159.289 159.289c-22.756 22.756-22.756 56.889 0 79.644s56.889 22.756 79.644 0l125.156-125.156 244.622 233.244c22.756 22.756 56.889 22.756 79.644 0 17.067-22.756 17.067-56.889-5.689-79.644z" />
<glyph unicode="&#xe905;" glyph-name="svg_check_box" d="M796.444 846.222c62.578 0 113.778-51.2 113.778-113.778v-568.889c0-62.578-51.2-113.778-113.778-113.778h-568.889c-62.578 0-113.778 51.2-113.778 113.778v568.889c0 62.578 51.2 113.778 113.778 113.778h568.889zM796.444 960h-568.889c-125.156 0-227.556-102.4-227.556-227.556v-568.889c0-125.156 102.4-227.556 227.556-227.556h568.889c125.156 0 227.556 102.4 227.556 227.556v568.889c0 125.156-102.4 227.556-227.556 227.556v0z" />
<glyph unicode="&#xe906;" glyph-name="svg_check_mark_filled" d="M796.444 960h-568.889c-125.156 0-227.556-102.4-227.556-227.556v-568.889c0-125.156 102.4-227.556 227.556-227.556h568.889c125.156 0 227.556 102.4 227.556 227.556v568.889c0 125.156-102.4 227.556-227.556 227.556zM830.578 550.4l-329.956-352.711c-28.444-28.444-73.956-34.133-102.4-5.689l-199.111 170.667c0 0 0 0-5.689 0-34.133 28.444-34.133 79.644-5.689 108.089s73.956 34.133 108.089 5.689l147.911-125.156 278.756 301.511c11.378 17.067 34.133 22.756 51.2 22.756 22.756 0 39.822-5.689 56.889-22.756 28.444-22.756 28.444-73.956 0-102.4z" />
<glyph unicode="&#xe907;" glyph-name="svg_check_mark_stroke" d="M773.689 684.782c-17.067 0-39.822-11.378-51.2-22.756l-278.756-301.511-147.911 125.156c-34.133 28.444-79.644 22.756-108.089-5.689-28.444-34.133-22.756-85.333 5.689-108.089 0 0 0 0 5.689 0l199.111-170.667c28.444-28.444 73.956-22.756 102.4 5.689l329.956 352.711c28.444 28.444 28.444 79.644 0 113.778-11.378 0-34.133 11.378-56.889 11.378zM796.444 846.222c62.578 0 113.778-51.2 113.778-113.778v-568.889c0-62.578-51.2-113.778-113.778-113.778h-568.889c-62.578 0-113.778 51.2-113.778 113.778v568.889c0 62.578 51.2 113.778 113.778 113.778h568.889zM796.444 960h-568.889c-125.156 0-227.556-102.4-227.556-227.556v-568.889c0-125.156 102.4-227.556 227.556-227.556h568.889c125.156 0 227.556 102.4 227.556 227.556v568.889c0 125.156-102.4 227.556-227.556 227.556v0z" />
<glyph unicode="&#xe908;" glyph-name="svg_check_minus_filled" d="M796.444 960h-568.889c-125.156 0-227.556-102.4-227.556-227.556v-568.889c0-125.156 102.4-227.556 227.556-227.556h568.889c125.156 0 227.556 102.4 227.556 227.556v568.889c0 125.156-102.4 227.556-227.556 227.556zM716.8 379.733h-409.6c-39.822 0-68.267 34.133-68.267 73.956s34.133 73.956 68.267 73.956h409.6c39.822 0 68.267-34.133 68.267-73.956s-28.444-73.956-68.267-73.956z" />
<glyph unicode="&#xe909;" glyph-name="svg_check_minus_stroke" d="M796.444 846.222c62.578 0 113.778-51.2 113.778-113.778v-568.889c0-62.578-51.2-113.778-113.778-113.778h-568.889c-62.578 0-113.778 51.2-113.778 113.778v568.889c0 62.578 51.2 113.778 113.778 113.778h568.889zM796.444 960h-568.889c-125.156 0-227.556-102.4-227.556-227.556v-568.889c0-125.156 102.4-227.556 227.556-227.556h568.889c125.156 0 227.556 102.4 227.556 227.556v568.889c0 125.156-102.4 227.556-227.556 227.556v0zM301.511 379.733h409.6c39.822 0 68.267 34.133 68.267 73.956s-34.133 73.956-68.267 73.956h-409.6c-39.822 0-68.267-34.133-68.267-73.956s34.133-73.956 68.267-73.956z" />
<glyph unicode="&#xe90a;" glyph-name="svg_child" d="M740.073 550.4c-23.273 46.545-60.509 74.473-97.745 79.127-32.582-23.273-69.818-32.582-111.709-32.582s-79.127 13.964-111.709 32.582c-37.236-4.655-74.473-32.582-97.745-79.127-27.927-51.2-46.545-134.982-46.545-260.655 0-23.273 18.618-37.236 41.891-37.236s41.891 18.618 41.891 37.236c0 107.055 13.964 176.873 32.582 214.109v-498.036c0-32.582 27.927-60.509 65.164-60.509s65.164 27.927 65.164 60.509v242.036h23.273v-242.036c0-32.582 27.927-60.509 65.164-60.509s65.164 27.927 65.164 60.509v493.382c18.618-37.236 32.582-107.055 32.582-214.109 0-23.273 18.618-37.236 41.891-37.236s41.891 18.618 41.891 37.236c-4.655 130.327-23.273 209.455-51.2 265.309zM674.909 783.127c0-74.548-64.601-134.982-144.291-134.982s-144.291 60.433-144.291 134.982c0 74.548 64.601 134.982 144.291 134.982s144.291-60.433 144.291-134.982z" />
<glyph unicode="&#xe90b;" glyph-name="svg_download" d="M221.867 106.667h585.956c45.511 0 79.644 34.133 79.644 73.956v79.644c0 22.756-22.756 45.511-45.511 45.511s-45.511-17.067-45.511-45.511v-68.267h-551.822v68.267c0 22.756-22.756 45.511-45.511 45.511s-45.511-17.067-45.511-45.511v-79.644c-11.378-39.822 22.756-73.956 68.267-73.956zM512 789.333c-28.444 0-45.511-17.067-45.511-45.511v-295.822l-79.644 79.644c-17.067 17.067-51.2 17.067-68.267 0s-17.067-45.511 0-62.578l159.289-153.6c5.689-5.689 11.378-5.689 17.067-11.378s11.378-5.689 17.067-5.689 11.378 0 17.067 5.689c5.689 0 11.378 5.689 17.067 11.378l159.289 153.6c17.067 17.067 17.067 45.511 0 62.578s-51.2 17.067-68.267 0l-79.644-79.644v295.822c0 22.756-17.067 45.511-45.511 45.511z" />
<glyph unicode="&#xe90c;" glyph-name="svg_error" d="M876.089 806.4c-199.111 199.111-523.378 199.111-722.489 0s-199.111-523.378 0-722.489c199.111-199.111 523.378-199.111 722.489 0s199.111 523.378 0 722.489zM568.889 203.378c0-28.444-22.756-51.2-51.2-51.2s-51.2 22.756-51.2 51.2v34.133c0 28.444 22.756 51.2 51.2 51.2s51.2-22.756 51.2-51.2v-34.133zM568.889 402.489c0-28.444-22.756-51.2-51.2-51.2s-51.2 22.756-51.2 51.2v278.756c0 28.444 22.756 51.2 51.2 51.2s51.2-22.756 51.2-51.2v-278.756z" />
<glyph unicode="&#xe90d;" glyph-name="svg_exit" d="M921.6 925.867h-402.773c-54.613 0-95.573-47.787-95.573-102.4v-266.24c0-20.48 13.653-34.133 34.133-34.133s34.133 13.653 34.133 34.133v266.24c0 20.48 13.653 34.133 34.133 34.133h402.773c20.48 0 34.133-13.653 34.133-34.133v-750.933c0-20.48-13.653-34.133-34.133-34.133h-402.773c-20.48 0-34.133 13.653-34.133 34.133v184.32c0 20.48-13.653 34.133-34.133 34.133s-34.133-13.653-34.133-34.133v-191.147c0-54.613 40.96-102.4 95.573-102.4h402.773c54.613 0 95.573 47.787 95.573 102.4v750.933c6.827 61.44-40.96 109.227-95.573 109.227zM109.227 372.907h614.4c20.48 0 34.133 13.653 34.133 34.133s-13.653 34.133-34.133 34.133h-614.4l143.36 150.187c13.653 13.653 13.653 34.133 0 47.787-6.827 6.827-13.653 6.827-20.48 6.827s-20.48-6.827-20.48-6.827l-204.8-204.8c0 0 0-6.827-6.827-6.827 0 0 0 0 0 0v0 0c0-6.827 0-13.653 0-13.653 0-6.827 0-6.827 6.827-13.653 0-6.827 6.827-6.827 6.827-6.827l204.8-204.8c6.827-6.827 13.653-6.827 20.48-6.827s20.48 0 20.48 6.827c13.653 13.653 13.653 34.133 0 47.787l-150.187 136.533z" />
<glyph unicode="&#xe90e;" glyph-name="svg_expertise" d="M619.055 592.291h-423.564c-13.964 0-27.927-13.964-27.927-27.927s13.964-27.927 27.927-27.927h423.564c13.964 0 27.927 13.964 27.927 27.927 4.655 13.964-9.309 27.927-27.927 27.927zM651.636 429.382c0 13.964-13.964 27.927-27.927 27.927h-423.564c-13.964 0-27.927-13.964-27.927-27.927s13.964-27.927 27.927-27.927h423.564c13.964 0 27.927 13.964 27.927 27.927zM516.655 299.055c0 13.964-13.964 27.927-27.927 27.927h-288.582c-13.964 0-27.927-13.964-27.927-27.927s13.964-27.927 27.927-27.927h288.582c13.964-4.655 27.927 9.309 27.927 27.927zM195.491 192c-13.964 0-27.927-13.964-27.927-27.927s13.964-27.927 27.927-27.927h237.382c13.964 0 27.927 13.964 27.927 27.927s-13.964 27.927-27.927 27.927h-237.382zM55.855 904.145h465.455v-232.727h237.382v-251.345h55.855v288.582l-256 251.345h-567.855v-1024h651.636v55.855h-591.127v912.291zM581.818 727.273v134.982l139.636-134.982h-139.636zM1014.691-17.455l-93.091 97.745c27.927 32.582 41.891 74.473 41.891 121.018 0 51.2-18.618 97.745-55.855 134.982-41.891 41.891-107.055 65.164-167.564 55.855-83.782-13.964-153.6-83.782-162.909-167.564-13.964-116.364 79.127-214.109 195.491-214.109 37.236 0 74.473 9.309 107.055 32.582l93.091-97.745c4.655-4.655 13.964-9.309 18.618-9.309 9.309 0 13.964 4.655 18.618 9.309s9.309 13.964 9.309 18.618c4.655 9.309 0 13.964-4.655 18.618zM902.982 238.545c27.927-102.4-65.164-195.491-167.564-167.564-46.545 13.964-83.782 46.545-93.091 93.091-27.927 102.4 65.164 195.491 167.564 167.564 41.891-13.964 79.127-51.2 93.091-93.091z" />
<glyph unicode="&#xe90f;" glyph-name="svg_filter" d="M665.6-58.311c0-5.689 5.689-5.689 0 0 5.689 0 5.689 0 11.378 0l267.378 227.556c0 0 0 0 0 5.689v113.778c0 5.689-5.689 5.689-5.689 5.689s-5.689 0-5.689 0l-159.289-136.533c-5.689-5.689-11.378-5.689-22.756-5.689v0c-17.067 0-28.444 11.378-28.444 28.444v341.333c0 5.689 0 5.689-5.689 5.689h-91.022c-5.689 0-5.689 0-5.689-5.689v-341.333c0-17.067-11.378-28.444-28.444-28.444-5.689 0-17.067 0-22.756 5.689l-159.289 136.533c0 0 0 0-5.689 0 0 0-5.689 0-5.689-5.689v-113.778c0 0 0 0 0-5.689l267.378-227.556zM312.889 385.422h91.022c5.689 0 5.689 0 5.689 5.689v341.333c0 17.067 11.378 28.444 28.444 28.444 5.689 0 17.067 0 22.756-5.689l159.289-136.533c0 0 0 0 5.689 0 0 0 5.689 0 5.689 5.689v113.778c0 0 0 0 0 5.689l-267.378 227.556c0 0-5.689 0-5.689 0s0 0-5.689 0l-267.378-227.556c0 0 0 0 0-5.689v-113.778c0-5.689 5.689-5.689 5.689-5.689s5.689 0 5.689 0l159.289 136.533c5.689 5.689 11.378 5.689 22.756 5.689 17.067 0 28.444-11.378 28.444-28.444v-341.333c0-5.689 0-5.689 5.689-5.689z" />
<glyph unicode="&#xe910;" glyph-name="svg_minus" d="M955.733 38.4c0 6.827-6.827 20.48-6.827 20.48l-232.107 232.107 6.827 6.827c116.053 143.36 102.4 354.987-27.307 484.693-68.267 68.267-163.84 109.227-259.413 109.227s-191.147-40.96-259.413-109.227c-68.267-68.267-109.227-163.84-109.227-259.413s40.96-191.147 109.227-259.413c68.267-68.267 163.84-109.227 259.413-109.227 81.92 0 157.013 27.307 225.28 75.093l6.827 6.827 232.107-232.107c13.653-13.653 34.133-13.653 47.787 0 6.827 13.653 6.827 20.48 6.827 34.133zM648.533 311.467c-54.613-54.613-129.707-88.747-211.627-88.747s-157.013 34.133-211.627 88.747-88.747 129.707-88.747 211.627 34.133 157.013 88.747 211.627 129.707 88.747 211.627 88.747c81.92 0 157.013-34.133 211.627-88.747 116.053-116.053 116.053-307.2 0-423.253zM307.2 488.96h259.413c27.307 0 40.96 13.653 40.96 34.133s-20.48 34.133-40.96 34.133h-259.413c-27.307 0-40.96-13.653-40.96-34.133s13.653-34.133 40.96-34.133z" />
<glyph unicode="&#xe911;" glyph-name="svg_pencil" d="M847.127 717.964l-37.236 37.236c-18.618 18.618-46.545 32.582-79.127 32.582-27.927 0-55.855-9.309-79.127-32.582l-437.527-437.527c-13.964-13.964-23.273-32.582-27.927-51.2l-32.582-162.909c0-9.309 0-23.273 9.309-27.927 4.655-4.655 13.964-9.309 23.273-9.309 0 0 4.655 0 9.309 0l162.909 32.582c18.618 4.655 37.236 13.964 51.2 27.927v0l437.527 437.527c18.618 18.618 32.582 46.545 32.582 79.127-4.655 27.927-13.964 55.855-32.582 74.473zM772.655 564.364l-400.291-400.291-41.891 41.891 400.291 400.291 41.891-41.891zM251.345 285.091l400.291 400.291 41.891-41.891-400.291-400.291-41.891 41.891zM321.164 145.455l-79.127-13.964-27.927 27.927 13.964 79.127 93.091-93.091zM828.509 643.491c0-13.964-4.655-27.927-18.618-41.891l-121.018 121.018c9.309 9.309 27.927 18.618 41.891 18.618s32.582-4.655 41.891-18.618l37.236-37.236c9.309-13.964 18.618-27.927 18.618-41.891z" />
<glyph unicode="&#xe912;" glyph-name="svg_print" d="M938.667 675.556h-142.222v199.111c0 17.067-11.378 28.444-28.444 28.444h-512c-17.067 0-28.444-11.378-28.444-28.444v-199.111h-142.222c-17.067 0-28.444-11.378-28.444-28.444v-512c0-17.067 11.378-28.444 28.444-28.444h142.222v-85.333c0-17.067 11.378-28.444 28.444-28.444h512c17.067 0 28.444 11.378 28.444 28.444v85.333h142.222c17.067 0 28.444 11.378 28.444 28.444v512c0 17.067-11.378 28.444-28.444 28.444zM113.778 311.467v56.889h796.444v-56.889h-796.444zM284.444 846.222h455.111v-312.889h-455.111v312.889zM739.556 49.778h-455.111v170.667h455.111v-170.667z" />
<glyph unicode="&#xe913;" glyph-name="svg_radio_button" d="M512 846.222c221.867 0 398.222-176.356 398.222-398.222s-176.356-398.222-398.222-398.222-398.222 176.356-398.222 398.222 176.356 398.222 398.222 398.222zM512 960c-284.444 0-512-227.556-512-512s227.556-512 512-512 512 227.556 512 512c0 278.756-233.244 512-512 512v0z" />
<glyph unicode="&#xe914;" glyph-name="svg_radio_button_select" d="M512 846.222c221.867 0 398.222-176.356 398.222-398.222s-176.356-398.222-398.222-398.222-398.222 176.356-398.222 398.222 176.356 398.222 398.222 398.222zM512 960c-284.444 0-512-227.556-512-512s227.556-512 512-512 512 227.556 512 512c0 278.756-227.556 512-512 512v0zM739.556 448c0-125.675-101.88-227.556-227.556-227.556s-227.556 101.88-227.556 227.556c0 125.675 101.88 227.556 227.556 227.556s227.556-101.88 227.556-227.556z" />
<glyph unicode="&#xe915;" glyph-name="svg_restart" d="M620.089 755.2c17.067 11.378 34.133 17.067 45.511 28.444l68.267 39.822c0 0 0 0 0 0s0 5.689 0 5.689c0 0 0 0 0 0l-68.267 39.822c-11.378 5.689-28.444 17.067-45.511 28.444s-34.133 17.067-45.511 28.444l-68.267 39.822c0 0 0 0-5.689 0 0 0-5.689 0-5.689-5.689 0 0 0 0 0 0v-79.644c0 0 0-5.689-5.689-5.689h-22.756c-233.244-11.378-415.289-199.111-415.289-426.667 0-96.711 34.133-193.422 96.711-267.378 0 0 5.689 0 5.689 0l51.2 51.2c0 0 0 5.689 0 5.689-45.511 62.578-73.956 136.533-73.956 210.489 0 182.044 147.911 335.644 329.956 347.022h22.756c0 0 5.689 0 5.689-5.689v-96.711c0 0 0 0 0-5.689 0 0 0-5.689 5.689 0 0 0 0 0 5.689 0l68.267 39.822c17.067 5.689 34.133 17.067 51.2 28.444zM967.111 448c0 96.711-34.133 193.422-96.711 267.378 0 0-5.689 0-5.689 0l-51.2-51.2c0 0 0-5.689 0-5.689 45.511-62.578 73.956-136.533 73.956-210.489 0-85.333-34.133-170.667-91.022-233.244s-136.533-102.4-227.556-113.778h-22.756c0 0-5.689 0-5.689 5.689v96.711c0 0 0 0 0 5.689 0 0 0 5.689-5.689 0 0 0 0 0-5.689 0l-68.267-39.822c-11.378-5.689-28.444-17.067-45.511-22.756-17.067-11.378-34.133-17.067-45.511-28.444v0l-68.267-39.822c0 0 0 0 0 0s0-5.689 0-5.689c0 0 0 0 0 0l68.267-39.822c11.378-5.689 28.444-17.067 45.511-28.444s34.133-17.067 45.511-22.756l68.267-39.822c0 0 0 0 5.689 0 0 0 5.689 0 5.689 5.689 0 0 0 0 0 0v85.333c0 0 0 5.689 5.689 5.689h22.756c221.867 5.689 398.222 187.733 398.222 409.6z" />
<glyph unicode="&#xe916;" glyph-name="svg_save" d="M329.956 880.356v-227.556c0-11.378 11.378-22.756 22.756-22.756h318.578c11.378 0 22.756 11.378 22.756 22.756v227.556c0 11.378 11.378 22.756 22.756 22.756h28.444c22.756 0 45.511-11.378 62.578-28.444l130.844-130.844c17.067-17.067 28.444-39.822 28.444-62.578v-597.333c0-51.2-39.822-91.022-91.022-91.022h-728.178c-51.2 0-91.022 39.822-91.022 91.022v728.178c0 51.2 39.822 91.022 91.022 91.022h159.289c11.378 0 22.756-11.378 22.756-22.756zM534.756 903.111h45.511c11.378 0 22.756-11.378 22.756-22.756v-136.533c0-11.378-11.378-22.756-22.756-22.756h-45.511c-11.378 0-22.756 11.378-22.756 22.756v136.533c0 11.378 11.378 22.756 22.756 22.756zM352.711 311.467v0 0c0-85.333 73.956-159.289 159.289-159.289v0 0c85.333 0 159.289 73.956 159.289 159.289v0 0c0 85.333-73.956 159.289-159.289 159.289v0 0c-85.333 0-159.289-73.956-159.289-159.289z" />
<glyph unicode="&#xe917;" glyph-name="svg_scan" d="M944.356 436.622c-5.689 11.378-17.067 22.756-51.2 45.511-17.067 11.378-733.867 307.2-733.867 307.2l-28.444-68.267 551.822-233.244h-512c-62.578 0-113.778-51.2-113.778-119.467v0-142.222c0-68.267 51.2-119.467 113.778-119.467h676.978c62.578 0 113.778 51.2 113.778 119.467v142.222c5.689 22.756 0 45.511-17.067 68.267zM893.156 226.133c0-22.756-17.067-45.511-39.822-45.511h-676.978c-22.756 0-39.822 17.067-39.822 45.511v28.444h762.311v-28.444zM893.156 334.222h-762.311v28.444c0 22.756 17.067 45.511 39.822 45.511h676.978c22.756 0 39.822-17.067 39.822-45.511l5.689-28.444z" />
<glyph unicode="&#xe918;" glyph-name="svg_search" d="M870.4 117.527l-181.527 181.527c93.091 121.018 83.782 297.891-27.927 409.6-60.509 60.509-134.982 88.436-218.764 88.436s-158.255-32.582-218.764-88.436c-60.509-60.509-88.436-134.982-88.436-218.764s32.582-158.255 88.436-218.764c60.509-60.509 134.982-88.436 218.764-88.436 69.818 0 134.982 23.273 190.836 65.164l181.527-181.527c9.309-9.309 18.618-9.309 27.927-9.309s18.618 4.655 27.927 9.309c13.964 9.309 13.964 37.236 0 51.2zM283.927 322.327c-41.891 41.891-69.818 102.4-69.818 162.909s23.273 121.018 69.818 162.909c41.891 41.891 102.4 69.818 162.909 69.818s121.018-23.273 162.909-69.818c88.436-88.436 88.436-237.382 0-325.818-41.891-41.891-102.4-69.818-162.909-69.818s-121.018 27.927-162.909 69.818z" />
<glyph unicode="&#xe919;" glyph-name="svg_stars" d="M637.673 438.691l-13.964 93.091c0 9.309 0 13.964 4.655 18.618l69.818 65.164c13.964 13.964 4.655 37.236-13.964 37.236l-93.091 13.964c-9.309 0-13.964 4.655-18.618 9.309l-41.891 83.782c-9.309 18.618-32.582 18.618-37.236 0l-41.891-83.782c-4.655-4.655-9.309-9.309-18.618-9.309l-93.091-13.964c-18.618 0-27.927-23.273-13.964-37.236l69.818-65.164c4.655-4.655 9.309-13.964 4.655-18.618l-18.618-93.091c-4.655-18.618 13.964-32.582 32.582-23.273l83.782 41.891c4.655 4.655 13.964 4.655 18.618 0l83.782-41.891c23.273-9.309 41.891 9.309 37.236 23.273zM949.527 326.982c13.964 13.964 4.655 37.236-13.964 37.236l-93.091 13.964c-9.309 0-13.964 4.655-18.618 9.309l-41.891 83.782c-9.309 18.618-32.582 18.618-37.236 0l-41.891-83.782c-4.655-4.655-9.309-9.309-18.618-9.309l-93.091-13.964c-18.618 0-27.927-23.273-13.964-37.236l69.818-65.164c4.655-4.655 9.309-13.964 4.655-18.618l-18.618-93.091c-4.655-18.618 13.964-32.582 32.582-23.273l83.782 41.891c4.655 4.655 13.964 4.655 18.618 0l83.782-41.891c18.618-9.309 37.236 4.655 32.582 23.273l-18.618 93.091c0 9.309 0 13.964 4.655 18.618l79.127 65.164zM432.873 364.218l-93.091 13.964c-9.309 0-13.964 4.655-18.618 9.309l-41.891 83.782c-9.309 18.618-32.582 18.618-37.236 0l-41.891-83.782c-4.655-4.655-9.309-9.309-18.618-9.309l-93.091-13.964c-18.618 0-27.927-23.273-13.964-37.236l69.818-65.164c4.655-4.655 9.309-13.964 4.655-18.618l-18.618-93.091c-4.655-18.618 13.964-32.582 32.582-23.273l83.782 41.891c4.655 4.655 13.964 4.655 18.618 0l83.782-41.891c18.618-9.309 37.236 4.655 32.582 23.273l-18.618 93.091c0 9.309 0 13.964 4.655 18.618l69.818 65.164c18.618 9.309 13.964 32.582-4.655 37.236z" />
<glyph unicode="&#xe91a;" glyph-name="svg_test" d="M954.182 741.236c0 83.782-69.818 148.945-158.255 148.945h-172.218l-4.655 4.655c-23.273 37.236-65.164 60.509-111.709 60.509-23.273 0-41.891-4.655-60.509-13.964s-37.236-27.927-51.2-46.545l-4.655-4.655h-172.218c-88.436 0-158.255-65.164-158.255-148.945v-660.945c0-83.782 69.818-148.945 158.255-148.945h572.509c88.436 0 158.255 65.164 158.255 148.945v660.945zM381.673 825.018h41.891c18.618 0 32.582 9.309 32.582 27.927 4.655 23.273 27.927 41.891 55.855 41.891 4.655 0 9.309 0 13.964 0 23.273-4.655 37.236-18.618 41.891-41.891 4.655-13.964 18.618-27.927 32.582-27.927h41.891v-65.164h-260.655v65.164zM884.364 84.945c0-46.545-37.236-83.782-83.782-83.782h-572.509c-46.545 0-83.782 37.236-83.782 83.782v656.291c0 46.545 37.236 83.782 83.782 83.782h83.782v-65.164c0-37.236 32.582-69.818 69.818-69.818h260.655c41.891 0 69.818 32.582 69.818 69.818v65.164h83.782c46.545 0 83.782-37.236 83.782-83.782v-656.291zM693.527 466.618c0 9.309-4.655 18.618-9.309 23.273-13.964 13.964-37.236 13.964-51.2 0l-162.909-153.6-79.127 74.473c-4.655 4.655-13.964 9.309-23.273 9.309s-18.618-4.655-23.273-9.309c-4.655-4.655-9.309-13.964-9.309-23.273s4.655-18.618 9.309-23.273l102.4-97.745c13.964-13.964 37.236-13.964 51.2 0l186.182 176.873c4.655 9.309 9.309 13.964 9.309 23.273z" />
<glyph unicode="&#xe91d;" glyph-name="svg_upload" d="M221.867 106.667h585.956c45.511 0 79.644 34.133 79.644 73.956v79.644c0 22.756-22.756 45.511-45.511 45.511s-45.511-17.067-45.511-45.511v-68.267h-557.511v68.267c0 22.756-22.756 45.511-45.511 45.511s-45.511-17.067-45.511-45.511v-79.644c-5.689-39.822 28.444-73.956 73.956-73.956zM512 294.4c-28.444 0-45.511 17.067-45.511 45.511v295.822l-79.644-79.644c-17.067-17.067-51.2-17.067-68.267 0s-17.067 45.511 0 62.578l159.289 153.6c5.689 5.689 11.378 5.689 17.067 11.378s11.378 5.689 17.067 5.689 11.378 0 17.067-5.689c5.689 0 11.378-5.689 17.067-11.378l159.289-153.6c17.067-17.067 17.067-45.511 0-62.578s-51.2-17.067-68.267 0l-79.644 79.644v-295.822c5.689-22.756-17.067-45.511-45.511-45.511z" />
<glyph unicode="&#xe91e;" glyph-name="noun_1212639_cc" horiz-adv-x="819" d="M182.044 518.724h159.653c15.081 0 27.307 12.226 27.307 27.307v0 111.047c0 5.027-4.075 9.102-9.102 9.102s-9.102-4.075-9.102-9.102v0-110.774c0-5.027-4.075-9.102-9.102-9.102v0h-159.653c-5.027 0-9.102 4.075-9.102 9.102v0 159.38c0 5.027 4.075 9.102 9.102 9.102v0h159.653c5.027 0 9.102 4.075 9.102 9.102s-4.075 9.102-9.102 9.102v0h-159.653c-15.081 0-27.307-12.226-27.307-27.307v0-159.38c-0.001-0.081-0.001-0.177-0.001-0.273 0-15.081 12.226-27.307 27.307-27.307 0 0 0.001 0 0.001 0v0zM182.044 229.911h159.835c15.081 0 27.307 12.226 27.307 27.307v0 159.835c0 15.081-12.226 27.307-27.307 27.307v0h-159.835c-15.081 0-27.307-12.226-27.307-27.307v0-159.835c0-15.081 12.226-27.307 27.307-27.307v0zM172.942 417.052c0 5.027 4.075 9.102 9.102 9.102v0h159.835c5.027 0 9.102-4.075 9.102-9.102v0-159.835c0-5.027-4.075-9.102-9.102-9.102v0h-159.835c-5.027 0-9.102 4.075-9.102 9.102v0zM413.423 738.27c-4.369-1.82-104.22-43.418-147.638-119.421-9.102 10.286-31.676 31.221-76.186 41.506-0.286 0.064-0.614 0.1-0.95 0.1-2.514 0-4.551-2.038-4.551-4.551 0-1.728 0.964-3.232 2.383-4.002l0.024-0.012s37.956-19.57 76.914-93.298c0.769-1.461 2.27-2.443 4.003-2.458h0.002c1.789 0.068 3.308 1.159 3.993 2.702l0.012 0.029c0.455 1.092 48.606 108.498 145.636 171.395 1.203 0.831 1.98 2.203 1.98 3.756 0 2.514-2.038 4.551-4.551 4.551-0.581 0-1.136-0.109-1.647-0.307l0.031 0.011zM571.529 705.138h-22.665c-0.036 0.001-0.078 0.001-0.12 0.001-3.883 0-7.198-2.431-8.506-5.855l-0.021-0.062-56.98-146.728c-0.456-1.048-0.721-2.268-0.721-3.55 0-4.992 4.019-9.046 8.999-9.102h15.297c0.151-0.009 0.327-0.014 0.505-0.014 3.956 0 7.322 2.524 8.577 6.049l0.020 0.064 9.102 25.304c1.275 3.589 4.641 6.113 8.597 6.113 0.178 0 0.354-0.005 0.529-0.015l-0.024 0.001h53.066c0.036 0.001 0.078 0.001 0.12 0.001 3.883 0 7.198-2.431 8.506-5.855l0.021-0.062 9.83-25.577c1.329-3.486 4.644-5.917 8.527-5.917 0.042 0 0.085 0 0.127 0.001h16.196c0.064-0.002 0.139-0.003 0.215-0.003 5.027 0 9.102 4.075 9.102 9.102 0 1.318-0.28 2.57-0.784 3.701l0.023-0.058-58.982 146.364c-1.275 3.57-4.62 6.082-8.554 6.098h-0.002zM575.351 605.013h-31.676c-0.032-0.001-0.070-0.001-0.108-0.001-2.363 0-4.278 1.915-4.278 4.278 0 0.557 0.107 1.089 0.3 1.578l-0.010-0.029 11.56 31.767c1.188 3.74 4.629 6.402 8.693 6.402s7.505-2.662 8.675-6.338l0.018-0.064 11.469-30.857c0.195-0.514 0.308-1.109 0.308-1.73 0-2.765-2.241-5.006-5.006-5.006-0.012 0-0.025 0-0.037 0h0.002zM602.112 351.152c7.711 3.331 13.956 8.842 18.107 15.753l0.098 0.175c3.095 5.482 4.918 12.037 4.918 19.018 0 0.162-0.001 0.324-0.003 0.485v-0.025c0.001 0.112 0.002 0.243 0.002 0.375 0 6.94-1.894 13.437-5.194 19.003l0.095-0.173c-3.215 5.541-7.461 10.136-12.514 13.653l-0.138 0.091c-4.886 3.347-10.69 5.747-16.952 6.792l-0.251 0.035c-7.593 1.069-16.365 1.679-25.279 1.679-1.385 0-2.766-0.015-4.144-0.044l0.206 0.003h-47.696c-10.054 0-18.204-8.15-18.204-18.204v0-129.070c0-9.551 7.743-17.294 17.294-17.294v0h38.866q31.858 0 40.232 1.092c8.391 0.728 16.001 3.549 22.466 7.934l-0.165-0.106c6.072 4.398 10.897 10.157 14.085 16.846l0.114 0.266c3.287 6.357 5.233 13.869 5.279 21.831v0.015c0.005 0.241 0.008 0.525 0.008 0.81 0 9.079-3.049 17.447-8.179 24.134l0.070-0.094c-5.784 7.233-13.713 12.533-22.817 14.95l-0.303 0.068zM528.475 401.033h19.115q23.484 0 28.49-0.546c4.957-0.325 9.353-2.494 12.555-5.819l0.006-0.006c2.617-3.131 4.206-7.199 4.206-11.638 0-0.293-0.007-0.584-0.021-0.873l0.002 0.041c0.010-0.226 0.016-0.491 0.016-0.757 0-4.732-1.881-9.025-4.936-12.172l0.004 0.004c-3.548-3.34-8.223-5.52-13.397-5.912l-0.074-0.005q-4.733-0.546-24.212-0.546h-21.845zM594.284 298.906c-3.088-3.406-7.269-5.771-11.987-6.538l-0.119-0.016c-5.405-0.687-11.659-1.079-18.004-1.079-1.703 0-3.399 0.028-5.089 0.084l0.246-0.006h-30.857v44.055h27.307c1.742 0.096 3.781 0.15 5.832 0.15 8.413 0 16.612-0.917 24.502-2.656l-0.752 0.139c4.285-1.389 7.842-4.033 10.335-7.495l0.041-0.060c2.285-3.371 3.648-7.528 3.648-12.004 0-0.196-0.003-0.391-0.008-0.586l0.001 0.029c0.007-0.192 0.010-0.418 0.010-0.645 0-5.175-1.937-9.898-5.125-13.484l0.018 0.021zM719.076 960h-628.053c-10.054 0-18.204-8.15-18.204-18.204v0-782.791c0-10.054 8.15-18.204 18.204-18.204v0h628.053c10.054 0 18.204 8.15 18.204 18.204v0 782.791c0 10.054-8.15 18.204-18.204 18.204v0zM719.076 159.004h-628.053v782.791h628.053zM182.955 878.080h20.48c2.514 0 4.551 2.038 4.551 4.551s-2.038 4.551-4.551 4.551v0h-20.48c-2.514 0-4.551-2.038-4.551-4.551s2.038-4.551 4.551-4.551v0zM222.185 878.080h20.48c2.514 0 4.551 2.038 4.551 4.551s-2.038 4.551-4.551 4.551v0h-20.48c-2.514 0-4.551-2.038-4.551-4.551s2.038-4.551 4.551-4.551v0zM161.018 850.773h20.48c2.514 0 4.551 2.038 4.551 4.551s-2.038 4.551-4.551 4.551v0h-20.48c-2.514 0-4.551-2.038-4.551-4.551s2.038-4.551 4.551-4.551v0zM264.966 878.080h77.733c2.514 0 4.551 2.038 4.551 4.551s-2.038 4.551-4.551 4.551v0h-77.733c-2.514 0-4.551-2.038-4.551-4.551s2.038-4.551 4.551-4.551v0zM166.935 882.995c0-2.514-2.038-4.551-4.551-4.551s-4.551 2.038-4.551 4.551c0 2.514 2.038 4.551 4.551 4.551s4.551-2.038 4.551-4.551zM535.12 855.689c0-2.514 2.038-4.551 4.551-4.551v0h20.48c2.514 0 4.551 2.038 4.551 4.551s-2.038 4.551-4.551 4.551v0h-20.48c-2.514 0-4.551-2.038-4.551-4.551v0zM603.932 855.689c0 2.514-2.038 4.551-4.551 4.551v0h-20.48c-2.514 0-4.551-2.038-4.551-4.551s2.038-4.551 4.551-4.551v0h20.48c2.514 0 4.551 2.038 4.551 4.551v0zM523.651 855.689c0-2.514-2.038-4.551-4.551-4.551s-4.551 2.038-4.551 4.551c0 2.514 2.038 4.551 4.551 4.551s4.551-2.038 4.551-4.551zM327.68 855.689c0 2.514-2.038 4.551-4.551 4.551v0h-51.063c-2.514 0-4.551-2.038-4.551-4.551s2.038-4.551 4.551-4.551v0h51.154c2.474 0.051 4.46 2.069 4.46 4.55 0 0 0 0.001 0 0.001v0zM359.174 850.773h80.737c2.514 0 4.551 2.038 4.551 4.551s-2.038 4.551-4.551 4.551v0h-80.737c-2.514 0-4.551-2.038-4.551-4.551s2.038-4.551 4.551-4.551v0zM494.524 850.773c2.514 0 4.551 2.038 4.551 4.551s-2.038 4.551-4.551 4.551v0h-28.581c-2.514 0-4.551-2.038-4.551-4.551s2.038-4.551 4.551-4.551v0zM364.089 878.080h28.581c2.514 0 4.551 2.038 4.551 4.551s-2.038 4.551-4.551 4.551v0h-28.581c-2.514 0-4.551-2.038-4.551-4.551s2.038-4.551 4.551-4.551v0zM198.884 855.689c0-2.514 2.038-4.551 4.551-4.551v0h48.151c2.514 0 4.551 2.038 4.551 4.551s-2.038 4.551-4.551 4.551v0h-48.151c-2.514 0-4.551-2.038-4.551-4.551v0zM314.573 830.293c0 2.514-2.038 4.551-4.551 4.551v0h-20.48c-2.514 0-4.551-2.038-4.551-4.551s2.038-4.551 4.551-4.551v0h20.48c2.514 0 4.551 2.038 4.551 4.551v0zM160.745 825.742h77.733c2.514 0 4.551 2.038 4.551 4.551s-2.038 4.551-4.551 4.551v0h-77.733c-2.514 0-4.551-2.038-4.551-4.551s2.038-4.551 4.551-4.551v0zM274.068 830.293c0-2.514-2.038-4.551-4.551-4.551s-4.551 2.038-4.551 4.551c0 2.514 2.038 4.551 4.551 4.551s4.551-2.038 4.551-4.551zM423.162 834.844h-88.929c-2.514 0-4.551-2.038-4.551-4.551s2.038-4.551 4.551-4.551v0h89.020c2.514 0 4.551 2.038 4.551 4.551s-2.038 4.551-4.551 4.551v0zM347.25 855.689c0-2.514-2.038-4.551-4.551-4.551s-4.551 2.038-4.551 4.551c0 2.514 2.038 4.551 4.551 4.551s4.551-2.038 4.551-4.551zM454.019 878.080h20.48c2.514 0 4.551 2.038 4.551 4.551s-2.038 4.551-4.551 4.551v0h-20.48c-2.514 0-4.551-2.038-4.551-4.551s2.038-4.551 4.551-4.551v0zM565.066 878.080h51.154c2.514 0 4.551 2.038 4.551 4.551s-2.038 4.551-4.551 4.551v0h-51.154c-2.514 0-4.551-2.038-4.551-4.551s2.038-4.551 4.551-4.551v0zM496.435 878.080h48.151c2.514 0 4.551 2.038 4.551 4.551s-2.038 4.551-4.551 4.551v0h-48.151c-2.514 0-4.551-2.038-4.551-4.551s2.038-4.551 4.551-4.551v0zM161.018 805.262c-2.514 0-4.551-2.038-4.551-4.551s2.038-4.551 4.551-4.551v0h20.48c2.514 0 4.551 2.038 4.551 4.551s-2.038 4.551-4.551 4.551v0zM277.618 800.347c0-2.514-2.038-4.551-4.551-4.551s-4.551 2.038-4.551 4.551c0 2.514 2.038 4.551 4.551 4.551s4.551-2.038 4.551-4.551zM296.55 800.347c0-2.514-2.038-4.551-4.551-4.551s-4.551 2.038-4.551 4.551c0 2.514 2.038 4.551 4.551 4.551s4.551-2.038 4.551-4.551zM450.014 830.293c0-2.514-2.038-4.551-4.551-4.551s-4.551 2.038-4.551 4.551c0 2.514 2.038 4.551 4.551 4.551s4.551-2.038 4.551-4.551zM468.946 830.293c0-2.514-2.038-4.551-4.551-4.551s-4.551 2.038-4.551 4.551c0 2.514 2.038 4.551 4.551 4.551s4.551-2.038 4.551-4.551zM419.43 882.995c0-2.514-2.038-4.551-4.551-4.551s-4.551 2.038-4.551 4.551c0 2.514 2.038 4.551 4.551 4.551s4.551-2.038 4.551-4.551zM438.363 882.995c0-2.514-2.038-4.551-4.551-4.551s-4.551 2.038-4.551 4.551c0 2.514 2.038 4.551 4.551 4.551s4.551-2.038 4.551-4.551zM315.938 800.347c0-2.514-2.038-4.551-4.551-4.551s-4.551 2.038-4.551 4.551c0 2.514 2.038 4.551 4.551 4.551s4.551-2.038 4.551-4.551zM205.71 805.262c-2.514 0-4.551-2.038-4.551-4.551s2.038-4.551 4.551-4.551v0h48.151c2.514 0 4.551 2.038 4.551 4.551s-2.038 4.551-4.551 4.551v0zM505.719 825.742c2.514 0 4.551 2.038 4.551 4.551s-2.038 4.551-4.551 4.551v0h-20.48c-2.514 0-4.551-2.038-4.551-4.551s2.038-4.551 4.551-4.551v0zM601.93 830.293c0-2.514-2.038-4.551-4.551-4.551s-4.551 2.038-4.551 4.551c0 2.514 2.038 4.551 4.551 4.551s4.551-2.038 4.551-4.551zM620.863 830.293c0-2.514-2.038-4.551-4.551-4.551s-4.551 2.038-4.551 4.551c0 2.514 2.038 4.551 4.551 4.551s4.551-2.038 4.551-4.551zM525.38 830.293c0-2.514 2.038-4.551 4.551-4.551v0h48.151c2.514 0 4.551 2.038 4.551 4.551s-2.038 4.551-4.551 4.551v0h-48.151c-2.514 0-4.551-2.038-4.551-4.551v0z" />
</font>
</defs>
</svg>
